<svg xmlns="http://www.w3.org/2000/svg" xmlns:xlink="http://www.w3.org/1999/xlink" width="239.916" height="47.913" viewBox="0 0 239.916 47.913"><defs><linearGradient id="linear-gradient" x1="1.011" y1="0.091" x2="-0.875" y2="1.505" gradientUnits="objectBoundingBox"><stop offset="0" stop-color="#004899"></stop><stop offset="1" stop-color="#5bc5f2"></stop></linearGradient></defs><g id="logo-comdisticol" transform="translate(0.5 0.662)"><ellipse id="Elipse_2" data-name="Elipse 2" cx="12.763" cy="13.128" rx="12.763" ry="13.128" transform="translate(5.082 10.253)" fill="#fff"></ellipse><path id="Trazado_38" data-name="Trazado 38" d="M81.059,48.578a11.491,11.491,0,0,1-3.53-8.621,11.269,11.269,0,0,1,3.562-8.506,13.13,13.13,0,0,1,17.631,0,11.271,11.271,0,0,1,3.562,8.506,11.516,11.516,0,0,1-3.513,8.621,13.19,13.19,0,0,1-17.712,0M84.913,34.72A7.293,7.293,0,0,0,82.9,39.957a7.477,7.477,0,0,0,2.017,5.352,6.655,6.655,0,0,0,5.042,2.13,6.531,6.531,0,0,0,4.961-2.13,7.47,7.47,0,0,0,2-5.319,7.369,7.369,0,0,0-2-5.27,6.973,6.973,0,0,0-10,0" transform="translate(-45.211 -16.358)" fill="#004899"></path><path id="Trazado_39" data-name="Trazado 39" d="M155.543,45.3l-5.5-7.189V52.163h-5.335v-23.1h4.75l6.766,8.848,6.962-8.848h4.586v23.1h-5.367V38.142L156.975,45.3Z" transform="translate(-84.386 -16.95)" fill="#004899"></path><path id="Trazado_40" data-name="Trazado 40" d="M226.084,49.023q-3.285,3.139-9.271,3.139h-8.2v-23.1h7.9q5.856,0,9.352,2.863t3.5,8.523a11.294,11.294,0,0,1-3.286,8.571M222.051,35.3a7.98,7.98,0,0,0-5.5-1.74h-2.6V47.673h2.375q3.871,0,5.774-1.854a7.11,7.11,0,0,0,1.9-5.335,6.592,6.592,0,0,0-1.952-5.189" transform="translate(-121.652 -16.95)" fill="#004899"></path><rect id="Rect&#xE1;ngulo_14" data-name="Rect&#xE1;ngulo 14" width="5.335" height="23.096" transform="translate(111.293 12.116)" fill="#004899"></rect><path id="Trazado_41" data-name="Trazado 41" d="M302.867,50.1a9.923,9.923,0,0,1-6.376,1.968,11.106,11.106,0,0,1-6.734-1.887,6.6,6.6,0,0,1-2.57-5.692V43.354h5.367v1.139a2.787,2.787,0,0,0,1.057,2.326,4.218,4.218,0,0,0,2.684.83,4.338,4.338,0,0,0,2.684-.732,2.447,2.447,0,0,0,.96-2.066,1.914,1.914,0,0,0-1.057-1.659,17.633,17.633,0,0,0-3.367-1.431q-1.951-.618-3.106-1.106a13.91,13.91,0,0,1-2.359-1.3,4.9,4.9,0,0,1-1.74-1.935,6.174,6.174,0,0,1-.536-2.684,5.694,5.694,0,0,1,2.391-4.831,9.474,9.474,0,0,1,5.807-1.773A9.811,9.811,0,0,1,302.119,30a6.038,6.038,0,0,1,2.44,5.058v.976h-5.27v-.976a2.442,2.442,0,0,0-.96-1.805,3.647,3.647,0,0,0-2.294-.667,3.716,3.716,0,0,0-2.065.52,1.625,1.625,0,0,0-.8,1.431,1.8,1.8,0,0,0,.943,1.529,13.538,13.538,0,0,0,3.058,1.3,29.566,29.566,0,0,1,3.318,1.22,14.254,14.254,0,0,1,2.521,1.464A5.429,5.429,0,0,1,304.77,42.1a6.291,6.291,0,0,1,.569,2.749,6.373,6.373,0,0,1-2.472,5.253" transform="translate(-167.471 -16.405)" fill="#004899"></path><path id="Trazado_42" data-name="Trazado 42" d="M346.47,33.555V52.162h-5.3V33.555h-6.929V29.066H353.4v4.489Z" transform="translate(-194.909 -16.95)" fill="#004899"></path><rect id="Rect&#xE1;ngulo_15" data-name="Rect&#xE1;ngulo 15" width="5.335" height="23.096" transform="translate(161.091 12.116)" fill="#004899"></rect><path id="Trazado_43" data-name="Trazado 43" d="M430.947,42.723a8.967,8.967,0,0,1-3.35,6.8,11.455,11.455,0,0,1-7.384,2.472,12.673,12.673,0,0,1-8.881-3.2,10.958,10.958,0,0,1-3.513-8.506,11.742,11.742,0,0,1,3.5-8.865,12.052,12.052,0,0,1,8.7-3.367,11.354,11.354,0,0,1,7.189,2.277,8.455,8.455,0,0,1,3.286,6.18h-5.042a4.54,4.54,0,0,0-1.805-2.83,5.977,5.977,0,0,0-3.659-1.073,6.464,6.464,0,0,0-4.847,2.066,7.447,7.447,0,0,0-1.984,5.383,7.411,7.411,0,0,0,1.952,5.433,6.722,6.722,0,0,0,5.009,1.984,5.957,5.957,0,0,0,3.823-1.252,4.883,4.883,0,0,0,1.805-3.5Z" transform="translate(-237.816 -16.358)" fill="#004899"></path><path id="Trazado_44" data-name="Trazado 44" d="M473.067,48.578a11.491,11.491,0,0,1-3.53-8.621,11.269,11.269,0,0,1,3.562-8.506,13.13,13.13,0,0,1,17.631,0,11.271,11.271,0,0,1,3.562,8.506,11.517,11.517,0,0,1-3.513,8.621,13.19,13.19,0,0,1-17.712,0m3.855-13.858a7.293,7.293,0,0,0-2.017,5.237,7.477,7.477,0,0,0,2.017,5.352,6.655,6.655,0,0,0,5.042,2.13,6.531,6.531,0,0,0,4.961-2.13,7.47,7.47,0,0,0,2-5.319,7.37,7.37,0,0,0-2-5.27,6.973,6.973,0,0,0-10,0" transform="translate(-273.806 -16.358)" fill="#004899"></path><path id="Trazado_45" data-name="Trazado 45" d="M536.719,52.162v-23.1h5.335V47.673H552.4v4.489Z" transform="translate(-312.983 -16.95)" fill="#004899"></path><path id="Trazado_48" data-name="Trazado 48" d="M87.032,27.72v0Z" transform="translate(-50.752 -14.422)" fill="none"></path><g id="Grupo_27" data-name="Grupo 27" transform="translate(0 0)"><path id="Trazado_46" data-name="Trazado 46" d="M14.058,41.751a10.965,10.965,0,0,1-3.516-8.513,11.753,11.753,0,0,1,3.5-8.872A12.063,12.063,0,0,1,22.751,21a11.362,11.362,0,0,1,7.195,2.279,8.463,8.463,0,0,1,3.288,6.185H28.187a4.544,4.544,0,0,0-1.807-2.832,5.983,5.983,0,0,0-3.663-1.074,6.469,6.469,0,0,0-4.851,2.067,7.453,7.453,0,0,0-1.986,5.388,7.419,7.419,0,0,0,1.953,5.437,6.729,6.729,0,0,0,5.014,1.986,5.962,5.962,0,0,0,3.825-1.253,4.889,4.889,0,0,0,1.807-3.5H33.69a8.976,8.976,0,0,1-3.353,6.8,11.467,11.467,0,0,1-7.39,2.474,12.684,12.684,0,0,1-8.888-3.207M6.818,21.733V46.364l10.1,2.87,20.5-5.824V40.372a12.842,12.842,0,0,1-2.229-7.5,12.524,12.524,0,0,1,2.229-7.37V18.778l-10.1-2.87Z" transform="translate(-3.976 -9.277)" stroke="rgba(0,0,0,0)" stroke-width="1" fill="url(#linear-gradient)"></path><path id="Trazado_47" data-name="Trazado 47" d="M0,0V10.309L18.14,5.154Z" stroke="rgba(0,0,0,0)" stroke-width="1" fill="url(#linear-gradient)"></path><path id="Trazado_49" data-name="Trazado 49" d="M61.656,83.911l-18.14,5.155,18.14,5.155V83.911Z" transform="translate(-25.375 -47.631)" stroke="rgba(0,0,0,0)" stroke-width="1" fill="url(#linear-gradient)"></path></g><path id="Trazado_52" data-name="Trazado 52" d="M2.842,19.667l20.5-5.824-5.2-1.477L0,17.52V43.491l2.842.807Z" transform="translate(0 -7.21)" fill="#0a3280"></path><path id="Trazado_53" data-name="Trazado 53" d="M80.215,29.522a13.067,13.067,0,0,1,1.676-1.94,13.741,13.741,0,0,1,1.166-.992V23.6l-2.842-.807Z" transform="translate(-46.777 -13.292)" fill="#043280"></path><path id="Trazado_54" data-name="Trazado 54" d="M54.385,77.548a13.421,13.421,0,0,1-1.2-1.032A12.983,12.983,0,0,1,51.543,74.6v3.038l-20.5,5.824,5.2,1.477,18.14-5.154Z" transform="translate(-18.104 -43.5)" fill="#0a3280"></path><path id="Trazado_55" data-name="Trazado 55" d="M87.032,31.9v0" transform="translate(-50.752 -18.603)" fill="#fff"></path><path id="Trazado_56" data-name="Trazado 56" d="M58.814,3.761V9.5l2.842.807V0L43.516,5.155l5.2,1.477Z" transform="translate(-25.375)" fill="#36a9d6"></path><path id="Trazado_57" data-name="Trazado 57" d="M2.842,93.58v-5.74L0,87.032V97.341l18.14-5.155-5.2-1.477Z" transform="translate(0 -50.752)" fill="#2a579d"></path></g></svg>